# xmcd CD database file generated by LOLA_Freedb v0.9beta0
# 
# Track frame offsets:
#      150
#      16952
#      34129
#      52360
#      70259
#      87118
#      102768
#      118825
#      132909
#      148124
#      163953
#      178079
#      194997
#      210760
#      228211
#      243775
#      260542
#      277393
#      292848
#      309158
# 
# Disc length: 4319 seconds
# 
# Revision: 7 
# Processed by: cddbd v1.5.2PL0 Copyright (c) Steve Scherf et al.
# Submitted via: LOLA_Freedb v0.9beta0
# 
DISCID=2c10dd14
DTITLE=BRAVO HITS 30 - Various - CD1 - BRAVO HITS 30 - Various - CD1
DYEAR=2000
DGENRE=Pop
TTITLE0=Bon Jovi - It´s my live
TTITLE1=Sonique - It feels so good
TTITLE2=Anastacia - I´m outta love
TTITLE3=Lopez, Jennifer - Let´s get loud
TTITLE4=Loona - Latino Lover
TTITLE5=Zlatko and Jürgen - Großer Bruder
TTITLE6=Gigi D'Agostino - Another way
TTITLE7=Vengaboys - Uncle John from Jamaica
TTITLE8=BRAVO HITS 30 - Various - CD1 - Sasha - Chemical reaction
TTITLE9=BRAVO HITS 30 - Various - CD1 - Britney Spears - Oops! ... I did it again
TTITLE10=BRAVO HITS 30 - Various - CD1 - NSYNC - I´ll never stop
TTITLE11=BRAVO HITS 30 - Various - CD1 - Lara Fabian - I will love again
TTITLE12=BRAVO HITS 30 - Various - CD1 - Love Connection - The Bomb
TTITLE13=BRAVO HITS 30 - Various - CD1 - Paul von Dyk - We are alive
TTITLE14=BRAVO HITS 30 - Various - CD1 - Dr Motte and Westbam - Love Parade 2000 ( One World On Love Parade)
TTITLE15=BRAVO HITS 30 - Various - CD1 - Schiller - Ein schöner Tag
TTITLE16=BRAVO HITS 30 - Various - CD1 - Scooter - She´s the Sun
TTITLE17=BRAVO HITS 30 - Various - CD1 - Deichkind feat Nina - Bon Voyage
TTITLE18=BRAVO HITS 30 - Various - CD1 - Laith Al-Deen - Bilder von Dir
TTITLE19=Alex - Ich will nur Dich
EXTD=
EXTT0=
EXTT1=
EXTT2=
EXTT3=
EXTT4=
EXTT5=
EXTT6=
EXTT7=
EXTT8=
EXTT9=
EXTT10=
EXTT11=
EXTT12=
EXTT13=
EXTT14=
EXTT15=
EXTT16=
EXTT17=
EXTT18=
EXTT19=
PLAYORDER=
